<svg width="24" height="24" viewBox="0 0 24 24" fill="none" xmlns="http://www.w3.org/2000/svg">
<path fill-rule="evenodd" clip-rule="evenodd" d="M7 15H8.5C8.77614 15 9 15.2239 9 15.5V16.5C9 16.7761 8.77614 17 8.5 17H3.5C3.22386 17 3 16.7761 3 16.5V15.5C3 15.2239 3.22386 15 3.5 15H5V3.5C5 3.22386 5.22386 3 5.5 3H6.5C6.77614 3 7 3.22386 7 3.5V15ZM11.5 21C11.2239 21 11 20.7761 11 20.5V9H13V20.5C13 20.7761 12.7761 21 12.5 21H11.5ZM7 19H5V20.5C5 20.7761 5.22386 21 5.5 21H6.5C6.77614 21 7 20.7761 7 20.5V19ZM17 20.5C17 20.7761 17.2239 21 17.5 21H18.5C18.7761 21 19 20.7761 19 20.5V15H17V20.5ZM15 5.5C15 5.22386 14.7761 5 14.5 5H13V3.5C13 3.22386 12.7761 3 12.5 3H11.5C11.2239 3 11 3.22386 11 3.5V5H9.5C9.22386 5 9 5.22386 9 5.5V6.5C9 6.77614 9.22386 7 9.5 7H14.5C14.7761 7 15 6.77614 15 6.5V5.5ZM19 11H20.5C20.7761 11 21 11.2239 21 11.5V12.5C21 12.7761 20.7761 13 20.5 13H15.5C15.2239 13 15 12.7761 15 12.5V11.5C15 11.2239 15.2239 11 15.5 11H17V3.5C17 3.22386 17.2239 3 17.5 3H18.5C18.7761 3 19 3.22386 19 3.5V11Z" fill="white"/>
</svg>
